Coordinates
version=1
nRows=19
nColumns=34
inDegrees=yes

Units are S.I. units (second, meters, Newtons, ...)
If the header above contains a line with 'inDegrees', this indicates whether rotational values are in degrees (yes) or radians (no).

endheader
time	pelvis_tilt	pelvis_list	pelvis_rotation	pelvis_tx	pelvis_ty	pelvis_tz	hip_flexion_r	hip_adduction_r	hip_rotation_r	knee_angle_r	ankle_angle_r	subtalar_angle_r	mtp_angle_r	hip_flexion_l	hip_adduction_l	hip_rotation_l	knee_angle_l	ankle_angle_l	subtalar_angle_l	mtp_angle_l	lumbar_extension	lumbar_bending	lumbar_rotation	arm_flex_r	arm_add_r	arm_rot_r	elbow_flex_r	pro_sup_r	arm_flex_l	arm_add_l	arm_rot_l	elbow_flex_l	pro_sup_l
      0.00000000	      5.07632427	    -14.37576601	    -24.52476379	      3.20529181	      0.95180719	      0.95909127	     29.74621246	      7.76505235	    -14.83044324	     34.23554012	     -4.24556586	     -8.04291248	      0.00000000	     23.54040041	     -1.42851297	      5.41091039	      9.88174258	     -5.10413561	     -3.87204360	      0.00000000	    -21.79183460	     -2.07095990	      6.82334045	      2.30734676	    -19.46028943	     29.10420702	     96.32178853	    119.67587982	      5.56525307	     -5.84072067	     14.27044993	     86.11012810	    115.98495196
      0.01666670	      5.05708350	    -14.37540690	    -24.52144446	      3.20540124	      0.95185471	      0.95933466	     29.74316813	      7.79394252	    -14.83776847	     34.23792962	     -4.24755421	     -8.04073125	      0.00000000	     23.52962921	     -1.38930090	      5.40348627	      9.88712364	     -5.10564209	     -3.87269215	      0.00000000	    -21.79387444	     -2.07002231	      6.82694614	      2.30617036	    -19.45870703	     29.10458895	     96.32213032	    119.67565212	      5.55952517	     -5.84339373	     14.27081513	     86.10904203	    115.98638272
      0.03333330	      5.16119664	    -14.32791226	    -23.85249064	      3.20578035	      0.95230794	      0.95959999	     29.54676554	      7.58216546	    -15.13816997	     34.03277144	     -4.31350827	     -8.40474739	      0.00000000	     23.69827058	     -1.09608996	      3.70250307	     10.19444082	     -5.86187232	     -4.46037917	      0.00000000	    -21.92485651	     -2.08938383	      6.02198538	      2.06970891	    -18.62554294	     28.48057537	     96.74114336	    119.60747179	      4.97854137	     -6.41706124	     14.55082489	     86.54131596	    116.24929505
      0.05000000	      5.05230186	    -14.07958243	    -23.59541176	      3.20425122	      0.95232271	      0.96048567	     29.65017740	      7.42085648	    -15.24225507	     33.67628076	     -4.52929982	     -8.43019196	      0.00000000	     24.28353576	     -0.92496022	      2.30602179	     10.56850418	     -7.65720208	     -4.70733041	      0.00000000	    -22.07228673	     -2.47469733	      5.48554066	      2.44657261	    -17.97845066	     28.22658362	     97.11527346	    119.57172982	      4.94385326	     -7.48830638	     15.17166176	     87.29196184	    116.55785442
      0.06666670	      5.22148195	    -12.85638016	    -23.32440412	      3.20404197	      0.95143378	      0.96215176	     30.03925540	      6.34123015	    -14.58354489	     34.01990464	     -3.31714817	     -8.37200743	      0.00000000	     24.77467568	      0.34368722	      1.62341392	     10.69298631	     -9.41035052	     -6.28787520	      0.00000000	    -21.73808424	     -4.07630081	      4.60464670	      2.72861220	    -17.05725432	     28.14995225	     96.57290682	    119.55512495	      4.54780296	     -8.81809875	     15.54660436	     88.16316064	    117.57350791
      0.08333330	      5.20979449	    -12.25551133	    -23.04354908	      3.20378874	      0.95081843	      0.96413123	     29.77771395	      6.12065281	    -14.09263975	     33.26449942	     -2.07447360	     -8.56604732	      0.00000000	     25.05809827	      1.05045798	      0.17483951	     10.47750581	    -11.73429636	     -8.55591405	      0.00000000	    -21.62734295	     -5.03230530	      3.62175484	      3.00379579	    -16.02845290	     27.89412966	     96.46172715	    119.60684729	      3.62939491	    -10.37564193	     15.65145197	     89.60099104	    118.33601067
      0.10000000	      4.87952864	    -11.49764788	    -23.36827856	      3.20227398	      0.94919239	      0.96568870	     30.16576118	      6.12300716	    -12.98862321	     32.71073800	     -1.47465807	     -9.17461268	      0.00000000	     26.31329113	      1.51025861	     -1.84659825	     11.19617899	    -14.92402874	    -11.05892900	      0.00000000	    -21.29135572	     -6.08722472	      3.04517337	      3.50011601	    -15.35239517	     27.15985938	     96.63417651	    119.72188626	      2.83832340	    -11.33032428	     14.87534449	     90.78758501	    118.92280201
      0.11666670	      4.46064562	    -11.59761487	    -23.53965365	      3.20084217	      0.94798786	      0.96683923	     29.91088753	      6.74531685	    -12.79180135	     31.46437083	     -0.87906681	     -8.89450265	      0.00000000	     26.94545443	      1.09560018	     -2.59901922	     11.47657675	    -15.92160982	    -11.63772316	      0.00000000	    -21.35939487	     -6.05392185	      2.86027114	      4.00952905	    -15.11343758	     26.95431141	     97.05104628	    119.74817918	      2.34418518	    -12.30767756	     15.39372881	     91.64223009	    119.11177271
      0.13333330	      3.76819811	    -11.24450942	    -24.68173539	      3.19970411	      0.94608586	      0.96809765	     30.16671711	      7.45962731	    -11.43677491	     30.31909633	     -0.45219076	     -8.58995225	      0.00000000	     27.73885470	      0.83749264	     -2.59167026	     11.34682125	    -17.64761486	    -14.05414689	      0.00000000	    -20.83865435	     -6.46866537	      3.38500622	      4.40342655	    -15.37446226	     26.94579889	     97.87471853	    119.74817918	      1.44103097	    -12.74824311	     15.74950271	     92.30011386	    119.73379705
      0.15000000	      3.42188009	    -10.72326879	    -25.67613798	      3.19851357	      0.94507615	      0.96971926	     29.91935130	      7.96195487	     -9.93277211	     28.76282164	     -0.23022134	     -8.58286194	      0.00000000	     28.19692111	      0.77737626	     -2.92304723	     11.20006418	    -18.55659698	    -15.24977405	      0.00000000	    -20.56132669	     -7.15265238	      3.81663203	      4.74571837	    -15.46894057	     26.92532699	     98.94249887	    119.74817918	      0.73332011	    -13.60444553	     16.35291502	     93.19267521	    119.74817918
      0.16666670	      2.88651532	    -10.26325705	    -26.08409447	      3.19796209	      0.94404267	      0.97009880	     29.65565862	      8.19193723	     -9.28623421	     26.91024661	      0.15368459	     -8.33939950	      0.00000000	     28.51816200	      0.88022865	     -3.09071716	     10.38466723	    -19.01389077	    -15.25928341	      0.00000000	    -20.16657419	     -7.49318311	      3.61323341	      5.22645355	    -15.57466738	     27.02013982	    100.01417376	    119.74817918	      0.00263830	    -13.94062041	     16.83239133	     93.62721196	    119.74817918
      0.18333330	      2.82419561	     -9.55243090	    -26.85128408	      3.19765177	      0.94358511	      0.97067397	     29.41008309	      8.05523190	     -8.20567174	     25.80673717	      0.34782625	     -8.06316621	      0.00000000	     28.32712761	      1.22631909	     -3.79811816	      9.37754939	    -19.60216915	    -15.77979304	      0.00000000	    -19.80993379	     -8.42270015	      3.41275625	      6.22928182	    -15.40388311	     27.38214395	    100.49006644	    119.74817918	     -0.94952166	    -14.12364022	     16.91150919	     94.31069565	    119.74817918
      0.20000000	      2.44776054	     -9.36250277	    -26.93852447	      3.19733936	      0.94319339	      0.97114909	     29.17565423	      8.16076239	     -8.13666520	     24.37252162	      0.77678672	     -7.75765866	      0.00000000	     28.32478731	      1.23949091	     -3.83277412	      8.48103861	    -19.94265902	    -15.61756672	      0.00000000	    -19.35882240	     -8.60111940	      2.96645599	      7.16149819	    -14.72764348	     27.39544404	    100.94627750	    119.74817918	     -1.58232959	    -14.89719828	     18.04092244	     94.79289102	    119.74817918
      0.21666670	      2.41978033	     -9.15169020	    -26.84657540	      3.19685469	      0.94350758	      0.97240574	     28.49448651	      8.01278012	     -8.54506690	     22.78925872	      1.43196473	     -6.38214346	      0.00000000	     27.95173951	      1.42212129	     -3.62059946	      7.52460428	    -20.44013132	    -15.82322363	      0.00000000	    -19.27233519	     -9.05918615	      2.08837312	      8.15815749	    -13.39975574	     27.17475914	    101.25355259	    119.74817918	     -2.31134462	    -16.11772866	     18.64372366	     95.36203837	    119.74817918
      0.23333330	      2.04875768	     -9.07481649	    -26.71331633	      3.19635082	      0.94315534	      0.97346390	     27.89068168	      8.34497108	     -7.85912186	     20.81585728	      2.54192590	     -5.14591833	      0.00000000	     28.09564427	      1.33983467	     -3.27504103	      6.97982638	    -20.74387322	    -15.67570364	      0.00000000	    -18.82963059	     -9.14686843	      1.37232715	      8.99137617	    -12.25989342	     26.79372992	    101.74224232	    119.74817918	     -2.86718565	    -17.11870666	     19.23705310	     95.91350681	    119.74817918
      0.25000000	      2.22332175	     -8.86428207	    -26.64602585	      3.19675731	      0.94337624	      0.97397124	     26.96551014	      8.10649234	     -7.17453794	     19.23825957	      3.42782926	     -2.63940898	      0.00000000	     27.87568325	      1.60831206	     -3.22426825	      6.75103805	    -20.91982446	    -15.96556747	      0.00000000	    -18.74753017	     -9.52299174	      0.62604794	      9.84461943	    -11.08990765	     26.25429124	    102.02362052	    119.74817918	     -3.52004171	    -17.87653867	     19.64605491	     96.39367989	    119.74817918
      0.26666670	      2.26079665	     -8.40147758	    -26.17294717	      3.19800952	      0.94277390	      0.97409765	     26.25594186	      7.61832999	     -5.86536976	     17.66250862	      4.19281504	     -1.24436036	      0.00000000	     28.21101545	      2.23496018	     -2.90919524	      7.07712782	    -20.98597442	    -15.95460017	      0.00000000	    -18.31858602	     -9.97749529	     -0.09463932	     10.18072867	    -10.21763549	     25.67693817	    102.69982087	    119.74817918	     -3.99397944	    -18.30866615	     19.55077779	     96.47473258	    119.74817918
      0.28333330	      2.46777059	     -7.86049120	    -25.53600881	      3.20045599	      0.94217480	      0.97424656	     25.53737725	      6.89406903	     -4.40971746	     16.38227985	      5.69263273	     -0.21507724	      0.00000000	     28.32631907	      3.08994781	     -2.69436422	      7.39205290	    -20.81033089	    -16.04663329	      0.00000000	    -17.91518754	    -10.36888341	     -0.93390342	     10.23610583	     -9.29715634	     24.84599626	    103.56944634	    119.74817918	     -4.54174606	    -18.63232599	     18.95522300	     96.21245543	    119.74817918
      0.30000000	      2.92504888	     -7.50711406	    -25.11211924	      3.20255207	      0.94189297	      0.97406126	     24.95421097	      6.26080317	     -2.99688598	     15.95730185	      7.65344407	      0.32501758	      0.00000000	     28.46322425	      3.77493790	     -2.75351895	      8.34526855	    -20.53344413	    -16.38207238	      0.00000000	    -17.85038020	    -10.66837020	     -1.63333619	     10.63308458	     -8.45994762	     24.14030270	    104.38754345	    119.74817918	     -4.94486104	    -18.88324981	     18.59989618	     95.76952390	    119.74817918
